<svg xmlns="http://www.w3.org/2000/svg" viewBox="0 0 180 180" fill="none">
  <defs>
    <linearGradient id="bg" x1="0" y1="0" x2="1" y2="1">
      <stop offset="0%" stop-color="#0f766e"/>
      <stop offset="100%" stop-color="#0c4a6e"/>
    </linearGradient>
    <linearGradient id="glow" x1="0.5" y1="0" x2="0.5" y2="1">
      <stop offset="0%" stop-color="#fbbf24" stop-opacity="0.95"/>
      <stop offset="100%" stop-color="#d4a574" stop-opacity="0.75"/>
    </linearGradient>
  </defs>
  <rect width="180" height="180" rx="40" fill="url(#bg)"/>
  <!-- شعلة / إلهام بسيطة + موجة فيزياء -->
  <path fill="url(#glow)" d="M86 48c8 12 4 28-6 38-10 10-14 24-8 36 6 14 24 20 38 14 10-4 16-14 14-24-2-10-12-16-22-14-6 2-10-2-8-8 2-8 10-14 8-22-2-8-10-12-16-20z"/>
  <path stroke="rgba(255,255,255,0.35)" stroke-width="4" fill="none" stroke-linecap="round"
    d="M42 118c18-10 36 10 54 0s36 10 54 0"/>
  <circle cx="126" cy="62" r="5" fill="rgba(251,191,36,0.9)"/>
  <ellipse cx="90" cy="140" rx="48" ry="8" fill="rgba(0,0,0,0.12)"/>
</svg>
